<svg width="834" height="596" viewBox="0 0 834 596" fill="none" xmlns="http://www.w3.org/2000/svg">
<path d="M266.613 6.93933C267.512 6.90396 268.412 6.86859 269.339 6.83214C281.287 6.78928 288.762 14.7375 296.768 22.6727C298.961 24.868 301.145 27.072 303.329 29.2763C304.914 30.8632 306.501 32.4492 308.088 34.0344C312.376 38.3213 316.653 42.6195 320.927 46.92C325.403 51.4194 329.89 55.9081 334.375 60.3979C342.859 68.8933 351.334 77.3981 359.805 85.9064C369.453 95.5959 379.111 105.275 388.771 114.953C408.633 134.853 428.481 154.768 448.321 174.69C452.737 172.218 456.222 169.596 459.794 166.02C460.798 165.022 461.801 164.024 462.835 162.996C463.919 161.905 465.002 160.815 466.118 159.691C467.273 158.539 468.428 157.386 469.618 156.199C472.778 153.045 475.93 149.884 479.08 146.72C482.388 143.402 485.702 140.09 489.016 136.777C494.583 131.209 500.146 125.635 505.705 120.059C512.113 113.631 518.528 107.21 524.947 100.793C531.8 93.9401 538.649 87.0828 545.496 80.2242C547.459 78.2589 549.423 76.2945 551.386 74.3303C555.065 70.6506 558.738 66.9657 562.41 63.2801C563.488 62.2023 564.567 61.1244 565.678 60.0139C571.067 54.5962 576.278 49.0987 581.248 43.2918C589.231 34.0617 596.77 28.7263 608.88 27.0459C618.229 26.4398 622.156 29.0994 629.172 35.0018C634.454 39.9202 639.552 45.0138 644.652 50.1188C646.193 51.6525 647.735 53.1856 649.277 54.7183C653.442 58.8612 657.599 63.012 661.754 67.165C664.353 69.7626 666.954 72.3584 669.556 74.9536C678.642 84.016 687.721 93.0848 696.794 102.16C705.239 110.606 713.699 119.039 722.164 127.465C729.446 134.714 736.718 141.972 743.983 149.239C748.316 153.572 752.653 157.902 756.999 162.222C761.085 166.283 765.158 170.356 769.223 174.439C770.713 175.931 772.207 177.42 773.706 178.903C790.402 195.441 790.402 195.441 791.934 206.66C791.91 208.097 791.885 209.535 791.861 211.016C791.859 212.459 791.857 213.903 791.856 215.391C789.83 231.123 772.814 243.267 762.155 253.93C760.75 255.341 759.344 256.751 757.939 258.162C754.109 262.007 750.276 265.848 746.441 269.688C742.294 273.842 738.151 278 734.007 282.158C724.021 292.173 714.029 302.183 704.036 312.192C701.212 315.021 698.388 317.849 695.565 320.678C678.008 338.266 660.45 355.851 642.885 373.431C638.827 377.493 634.768 381.555 630.709 385.618C629.701 386.627 628.692 387.637 627.653 388.677C611.291 405.054 594.942 421.444 578.598 437.839C561.801 454.689 544.992 471.527 528.171 488.354C518.734 497.795 509.302 507.242 499.883 516.701C491.869 524.751 483.844 532.789 475.804 540.814C471.705 544.907 467.611 549.004 463.531 553.116C459.792 556.882 456.039 560.634 452.274 564.375C450.919 565.728 449.568 567.085 448.223 568.449C436.413 580.413 425.974 587.601 408.799 587.832C392.096 587.657 382.183 581.569 370.649 569.967C369.545 568.838 369.545 568.838 368.419 567.686C367.627 566.887 366.834 566.088 366.017 565.265C363.512 562.737 361.015 560.202 358.519 557.665C356.023 555.133 353.524 552.604 351.022 550.078C349.474 548.516 347.93 546.95 346.39 545.381C342.782 541.732 339.116 538.238 335.214 534.905C329.615 530.028 324.372 524.846 319.142 519.579C318.124 518.56 317.107 517.541 316.059 516.491C313.868 514.295 311.678 512.098 309.489 509.899C306.027 506.421 302.561 502.947 299.094 499.474C291.745 492.112 284.402 484.744 277.058 477.375C268.526 468.813 259.991 460.253 251.451 451.699C248.033 448.273 244.619 444.843 241.205 441.414C239.12 439.323 237.034 437.233 234.948 435.143C233.997 434.186 233.046 433.23 232.067 432.244C231.195 431.371 230.323 430.499 229.424 429.6C228.668 428.841 227.912 428.082 227.132 427.3C224.905 425.133 224.905 425.133 221.322 422.887C221.322 422.064 221.322 421.241 221.322 420.393C220.499 420.393 219.676 420.393 218.827 420.393C218.827 419.57 218.827 418.746 218.827 417.898C218.08 417.574 217.332 417.249 216.562 416.914C213.652 415.301 212.22 413.789 210.175 411.194C207.139 407.48 203.88 404.671 200.119 401.684C200.119 400.861 200.119 400.038 200.119 399.19C199.321 398.856 198.524 398.521 197.702 398.177C195.13 396.696 195.13 396.696 193.882 392.954C192.648 392.542 191.413 392.131 190.141 391.707C188.626 389.905 187.116 388.098 185.658 386.25C183.845 384.155 181.942 382.512 179.773 380.793C178.114 379.404 178.114 379.404 176.421 377.987C176.421 377.164 176.421 376.341 176.421 375.493C175.598 375.493 174.775 375.493 173.926 375.493C173.926 374.67 173.926 373.846 173.926 372.998C173.103 372.998 172.28 372.998 171.432 372.998C169.629 371.123 169.629 371.123 167.534 368.555C163.583 363.872 159.341 359.962 154.599 356.093C153.98 355.498 153.361 354.903 152.723 354.29C152.723 353.467 152.723 352.644 152.723 351.796C151.681 351.371 151.681 351.371 150.618 350.938C145.633 348.109 142.072 344.787 140.251 339.323C139.53 338.989 138.81 338.655 138.068 338.31C134.786 336.578 133.082 334.298 130.818 331.411C128.188 328.38 125.123 325.968 121.985 323.48C121.427 322.946 120.87 322.412 120.295 321.862C120.295 321.039 120.295 320.216 120.295 319.368C119.472 319.368 118.648 319.368 117.8 319.368C115.773 317.653 115.773 317.653 114.058 315.626C114.058 314.803 114.058 313.98 114.058 313.132C113.364 312.875 112.669 312.617 111.954 312.352C108.68 310.406 106.77 307.988 104.426 305.025C102.747 302.929 102.747 302.929 99.871 300.815C97.0293 298.515 94.9579 296.358 92.6122 293.59C88.1469 288.432 83.4017 283.663 78.5021 278.921C76.7393 277.192 74.9773 275.463 73.2159 273.732C70.4838 271.054 67.7473 268.381 64.9973 265.721C62.3125 263.12 59.6486 260.499 56.9871 257.874C56.1736 257.097 55.3602 256.319 54.5221 255.519C47.8543 248.89 42.8245 241.261 40.9336 231.936C40.9609 230.897 40.9883 229.859 41.0164 228.789C41.0148 227.744 41.0132 226.698 41.0115 225.622C42.7293 217.021 47.4788 210.593 53.6412 204.587C54.3193 203.906 54.9974 203.225 55.6961 202.524C57.9173 200.3 60.1557 198.094 62.3951 195.888C63.9589 194.331 65.5218 192.772 67.0837 191.212C70.3515 187.954 73.6272 184.704 76.9096 181.46C81.094 177.325 85.265 173.177 89.431 169.023C93.4328 165.034 97.4407 161.051 101.45 157.069C102.203 156.32 102.956 155.571 103.732 154.799C105.891 152.654 108.055 150.514 110.22 148.374C110.842 147.757 111.463 147.139 112.102 146.502C115.52 143.135 119.027 139.924 122.658 136.787C127.814 132.313 132.647 127.575 137.454 122.731C138.364 121.819 139.274 120.907 140.212 119.968C142.17 118.005 144.127 116.04 146.083 114.074C149.185 110.956 152.291 107.842 155.399 104.729C161.994 98.1196 168.584 91.5054 175.174 84.8906C182.815 77.2201 190.458 69.5517 198.106 61.8886C201.154 58.8328 204.198 55.7732 207.242 52.7134C209.126 50.8255 211.009 48.9377 212.893 47.0501C213.728 46.2089 214.563 45.3676 215.423 44.5009C220.204 39.7197 225.117 35.176 230.258 30.783C235.009 26.5961 239.345 21.968 243.741 17.414C250.98 10.0378 255.974 6.9019 266.613 6.93933Z" fill="#0794FE"/>
<path d="M266.331 6.93916C267.23 6.90384 268.128 6.86853 269.054 6.83214C280.927 6.78956 288.393 14.6645 296.375 22.5306C298.545 24.6908 300.706 26.8597 302.867 29.0289C304.437 30.5909 306.007 32.1521 307.578 33.7126C311.823 37.9337 316.056 42.1665 320.286 46.4022C323.821 49.9402 327.362 53.4725 330.903 57.0049C339.253 65.3345 347.592 73.6737 355.926 82.0192C364.525 90.6293 373.139 99.2234 381.761 107.81C389.169 115.188 396.568 122.576 403.959 129.972C408.371 134.387 412.787 138.798 417.211 143.2C421.367 147.335 425.51 151.482 429.644 155.638C431.163 157.162 432.687 158.681 434.216 160.196C436.3 162.263 438.367 164.344 440.432 166.43C441.594 167.592 442.755 168.754 443.952 169.95C448.127 175.118 448.127 175.118 447.814 179.415C445.691 182.652 442.988 185.235 440.227 187.931C439.396 188.772 438.565 189.613 437.708 190.479C434.905 193.306 432.075 196.105 429.245 198.905C427.235 200.921 425.226 202.938 423.219 204.957C417.751 210.447 412.26 215.913 406.764 221.374C401.019 227.089 395.293 232.823 389.565 238.554C379.936 248.183 370.292 257.796 360.639 267.4C350.714 277.275 340.804 287.164 330.91 297.069C318.986 309.006 307.049 320.931 295.101 332.844C290.54 337.392 285.984 341.945 281.431 346.502C276.063 351.873 270.683 357.231 265.294 362.579C263.319 364.543 261.348 366.511 259.382 368.483C256.694 371.178 253.991 373.858 251.284 376.534C250.126 377.705 250.126 377.705 248.946 378.9C243.861 383.883 238.817 387.028 232.308 389.873C231.3 390.377 230.291 390.881 229.252 391.401C224.568 392.823 220.052 392.84 215.18 392.831C214.179 392.83 213.179 392.829 212.148 392.827C204.644 392.677 198.84 391.491 192.446 387.383C191.316 386.715 190.185 386.047 189.02 385.359C187.633 384.511 187.633 384.511 186.218 383.647C185.139 383.236 184.059 382.825 182.948 382.401C179.907 381.122 178.288 379.991 176.252 377.42C176.252 376.598 176.252 375.776 176.252 374.929C175.43 374.929 174.608 374.929 173.761 374.929C173.761 374.108 173.761 373.286 173.761 372.439C172.939 372.439 172.116 372.439 171.269 372.439C169.469 370.566 169.469 370.566 167.376 368.002C163.43 363.326 159.193 359.422 154.457 355.559C153.839 354.965 153.221 354.371 152.584 353.759C152.584 352.937 152.584 352.115 152.584 351.268C151.543 350.845 151.543 350.845 150.482 350.412C145.503 347.587 141.946 344.271 140.127 338.815C139.408 338.481 138.688 338.148 137.947 337.804C134.669 336.074 132.968 333.798 130.706 330.915C128.079 327.889 125.018 325.48 121.884 322.996C121.327 322.463 120.77 321.93 120.196 321.381C120.196 320.559 120.196 319.737 120.196 318.89C119.374 318.89 118.551 318.89 117.704 318.89C115.68 317.178 115.68 317.178 113.967 315.154C113.967 314.332 113.967 313.511 113.967 312.664C113.274 312.407 112.58 312.15 111.865 311.885C108.596 309.942 106.688 307.527 104.347 304.569C102.67 302.476 102.67 302.476 99.7975 300.366C96.9594 298.069 94.8906 295.915 92.5478 293.152C88.0881 288.002 83.3487 283.24 78.4553 278.505C76.6947 276.779 74.9348 275.052 73.1757 273.324C70.4469 270.65 67.7139 267.981 64.9674 265.325C62.2859 262.728 59.6253 260.111 56.967 257.49C56.1546 256.714 55.3422 255.938 54.5051 255.139C47.8457 248.52 42.8221 240.903 40.9336 231.592C40.9609 230.555 40.9882 229.518 41.0163 228.449C41.0147 227.406 41.0131 226.362 41.0114 225.287C42.7271 216.7 47.4707 210.282 53.6253 204.285C54.3026 203.605 54.9799 202.925 55.6777 202.225C57.8961 200.004 60.1317 197.802 62.3683 195.599C63.9302 194.044 65.4912 192.488 67.0511 190.93C70.3149 187.677 73.5864 184.432 76.8647 181.193C81.044 177.065 85.2098 172.923 89.3705 168.775C93.3674 164.792 97.3703 160.815 101.374 156.839C102.126 156.091 102.878 155.344 103.653 154.573C105.81 152.432 107.972 150.294 110.134 148.158C110.754 147.541 111.375 146.924 112.014 146.289C115.427 142.927 118.929 139.72 122.556 136.589C127.705 132.121 132.533 127.39 137.334 122.554C138.243 121.644 139.152 120.733 140.088 119.795C142.044 117.835 143.999 115.873 145.952 113.91C149.05 110.797 152.153 107.688 155.256 104.579C161.843 97.9801 168.425 91.376 175.006 84.7713C182.638 77.1125 190.272 69.4559 197.911 61.8045C200.955 58.7533 203.995 55.6984 207.035 52.6433C208.916 50.7583 210.797 48.8733 212.679 46.9886C213.513 46.1487 214.346 45.3087 215.205 44.4433C219.98 39.6694 224.888 35.1327 230.022 30.7464C234.767 26.5659 239.098 21.9449 243.488 17.3979C250.718 10.0329 255.706 6.90179 266.331 6.93916Z" fill="#253764"/>
<path d="M342.171 128.39C349.44 131.6 354.635 136.816 359.63 142.856C368.028 152.921 376.982 162.454 387.089 170.812C402.565 183.661 402.565 183.661 403.934 194.441C403.109 207.105 393.311 215.207 384.873 223.563C383.488 224.953 382.104 226.343 380.721 227.735C376.979 231.495 373.221 235.239 369.46 238.979C365.514 242.908 361.581 246.849 357.646 250.789C351.035 257.403 344.414 264.007 337.787 270.605C330.144 278.215 322.516 285.84 314.896 293.475C307.546 300.838 300.185 308.191 292.82 315.539C289.695 318.657 286.573 321.778 283.455 324.902C279.776 328.588 276.087 332.263 272.391 335.932C271.043 337.274 269.697 338.619 268.355 339.967C254.398 353.981 241.058 364.088 220.518 364.832C205.721 364.261 193.334 359.311 182.462 349.236C170.451 336.072 166.274 321.876 167.016 304.391C168.445 285.115 182.352 272.859 195.298 259.966C196.706 258.555 198.113 257.144 199.519 255.732C203.31 251.93 207.109 248.135 210.91 244.342C214.896 240.362 218.876 236.376 222.858 232.391C229.535 225.709 236.218 219.032 242.904 212.358C250.632 204.644 258.351 196.92 266.066 189.192C272.701 182.546 279.341 175.904 285.985 169.266C289.949 165.307 293.911 161.345 297.869 157.379C301.584 153.657 305.305 149.941 309.031 146.23C310.397 144.867 311.761 143.502 313.123 142.134C314.981 140.27 316.846 138.413 318.714 136.557C319.756 135.516 320.798 134.475 321.872 133.402C328.082 127.881 334.076 127.057 342.171 128.39Z" fill="#FEB82C"/>
<path d="M144.934 114.832C144.934 118.582 144.934 118.582 143.449 120.547C142.748 121.253 142.046 121.959 141.324 122.687C140.524 123.502 139.724 124.317 138.899 125.157C137.565 126.486 137.565 126.486 136.205 127.843C135.277 128.782 134.349 129.722 133.394 130.69C130.313 133.803 127.22 136.903 124.126 140.003C121.99 142.155 119.854 144.307 117.719 146.461C113.239 150.975 108.752 155.484 104.26 159.987C98.4894 165.773 92.7329 171.573 86.9808 177.378C82.5713 181.825 78.1558 186.266 73.7382 190.705C71.6126 192.842 69.4888 194.981 67.3667 197.121C64.4054 200.106 61.4362 203.082 58.4646 206.056C57.5804 206.95 56.6961 207.844 55.7851 208.765C54.9779 209.57 54.1708 210.374 53.3392 211.203C52.2861 212.261 52.2861 212.261 51.2116 213.339C49.4146 214.832 49.4146 214.832 46.9336 214.832C48.8963 209.982 52.1689 206.711 55.8019 203.092C56.4518 202.435 57.1017 201.778 57.7712 201.101C59.9191 198.932 62.0757 196.772 64.2328 194.612C65.7357 193.099 67.238 191.586 68.7399 190.072C71.8917 186.898 75.0476 183.729 78.2067 180.562C82.2337 176.526 86.2525 172.481 90.2685 168.433C93.3737 165.305 96.4822 162.179 99.5917 159.055C101.073 157.566 102.554 156.077 104.033 154.587C111.052 147.523 118.067 140.518 125.614 134.021C127.957 131.994 130.162 129.859 132.335 127.649C133.086 126.888 133.838 126.127 134.612 125.342C135.357 124.581 136.103 123.82 136.87 123.035C138.046 121.842 138.046 121.842 139.245 120.625C141.144 118.697 143.039 116.765 144.934 114.832Z" fill="#768193"/>
<path d="M589.934 35.832C587.908 41.2299 583.939 44.8183 580.003 48.7861C579.271 49.5329 578.54 50.2798 577.787 51.0492C575.457 53.4263 573.119 55.7945 570.78 58.1626C569.196 59.7756 567.613 61.3891 566.03 63.0032C562.155 66.9528 558.272 70.8945 554.385 74.832C553.576 74.4168 552.767 74.0016 551.934 73.5739C552.869 72.624 552.869 72.624 553.823 71.6549C556.695 68.7335 559.562 65.807 562.43 62.8804C563.9 61.3867 563.9 61.3867 565.401 59.863C570.752 54.393 575.918 48.8409 580.832 42.9528C586.788 35.832 586.788 35.832 589.934 35.832Z" fill="#7BC2F3"/>
<path d="M622.109 29.2603C624.515 31.0176 626.76 32.8145 628.934 34.832C625.214 34.832 625.214 34.832 621.804 33.0386C614.553 29.8085 605.751 30.9833 597.934 31.2452C603.616 25.7659 615.291 25.7316 622.109 29.2603Z" fill="#E0EEE8"/>
<path d="M183.934 382.832C187.649 384.238 190.602 385.611 193.934 387.832C193.934 389.482 193.934 391.132 193.934 392.832C188.729 391.097 187.26 388.397 183.934 384.082C183.934 383.669 183.934 383.257 183.934 382.832Z" fill="#9CC2D9"/>
</svg>
